Patient4_TMGait_0pt6_01_right_03_EMG.mot
version=1
nRows=26
nColumns=33
inDegrees=no
endheader
time	1LAddLong	2LGlutMax	3LGlutMed	4LIliopsoas	5LSemiMemb	6LBicFemLong	7LRecFem	8LVastMed	9LVastLat	10LGasMed	11LTibAnt	12lTibPost	13LPeroneusLong	14LSol	15LExtDigLong	16LFlexDigLong	17RAddLong	18RGlutMax	19RGlutMed	20RIliopsoas	21RSemiMemb	22RBicFemLong	23RRecFem	24RVastMed	25RVastLat	26RGasMed	27RTibAnt	28RTibPost	29RPeroneusLong	30RSol	31RExtDigLong	32RFlexDigLong
3.01	-0.015717	-0.078125	-0.1149	0.019531	-0.017242	0.14511	0.14587	-0.006104	-0.16739	-0.052795	0.26215	0.001221	0.049133	0.11627	0.1059	0.000305	0.028229	-0.090942	0.15411	-0.10284	0.039978	-0.017853	0.29556	-0.04837	-0.048828	-0.021667	-0.27039	-0.00885	0.21545	-0.047455	0.000458	-0.009308
3.011	0.002899	-0.085602	-0.080414	0.005493	-0.033569	0.12848	0.13321	-0.013885	-0.027313	-0.035706	0.23621	0.005341	0.054016	0.15747	0.25711	-0.007172	0.093231	-0.087738	0.14343	0.035248	0.025177	-0.049133	0.25742	-0.067902	-0.032501	-0.019379	-0.39032	-0.009918	0.42191	-0.041351	0.001068	-0.012817
3.012	0.004425	-0.092926	-0.10666	0.003967	-0.007324	0.033875	0.019379	-0.014191	0.013733	-0.033264	-0.056915	0.003662	0.032654	0.21149	-0.06897	-0.007019	0.075378	-0.095673	-0.030518	0.13382	0.016479	-0.055389	0.22339	-0.045929	-0.039978	-0.017548	-0.32227	-0.005341	0.46783	-0.036316	-0.001068	-0.004272
3.013	0	-0.085907	-0.041809	-0.000916	0.028534	-0.021057	-0.051117	-0.001984	-0.050659	-0.011139	-0.23865	0.003204	0.088348	0.25635	0.37537	-0.005798	0.035858	-0.089264	0.2446	0.1297	-0.003052	-0.051422	0.19745	-0.078735	-0.061798	-0.013885	0.242	-0.008698	-0.27084	-0.17349	-0.002136	-0.007324
3.014	-0.009918	-0.10681	0.035706	0.042877	0.002289	-0.054626	-0.026245	-0.006104	-0.094299	-0.037231	-0.21103	0.004578	-0.088959	0.19287	-0.3096	-0.00351	-0.019379	-0.10666	0.26306	0.03952	-0.00946	-0.045471	0.19959	-0.067596	-0.062714	-0.014496	0.43228	-0.003357	-0.37842	-0.16907	-0.001068	-0.012207
3.015	-0.004425	-0.10483	0.059357	0.018616	-0.002289	-0.078888	0.03418	0.000763	-0.06958	-0.068207	-0.033569	0.006714	-0.084686	0.11871	-0.10162	0.004272	0.000763	-0.11017	0.21698	0.075378	-0.00824	-0.024414	0.16876	-0.070496	-0.034637	-0.02655	0.37125	-0.011597	-0.086975	0.020905	0.000153	-0.002289
3.016	-0.010529	-0.049896	0.077515	0.016479	0.005493	-0.050201	0.039368	-0.001068	-0.026245	-0.10101	-0.034332	0.002136	0.12222	0.10925	0.098572	0.005646	-0.005951	-0.092468	0.21851	0.017395	-0.003967	-0.009766	0.14679	-0.099945	-0.029602	-0.028534	0.168	-0.004425	0.002899	0.072021	-0.001831	-0.007935
3.017	-0.011902	-0.039673	0.056305	0.001984	0.005188	0.020752	0.048523	-0.005646	-0.003357	-0.071564	0.049133	0.005951	0.10712	0.159	0.15701	-0.002594	0.001221	-0.089111	0.19028	0.094604	0.000305	-0.006714	0.071259	-0.091705	-0.043793	-0.039215	-0.15015	-0.007629	0.35278	0.058441	0.00946	-0.003967
3.018	-0.005798	-0.083771	-0.015259	0.012207	0.013733	0.071106	0.04837	0.00351	0.020142	-0.045166	0.048218	0.003815	0.19867	0.049744	-0.16419	-0.013428	0.021515	-0.10193	0.16632	0.18539	0.018463	0.003204	0.079651	-0.045319	-0.057068	-0.031891	-0.12802	-0.007629	0.78003	-0.031433	0.00061	-0.00412
3.019	-0.002441	-0.11353	-0.077667	0.001373	0.022125	0.11414	0.10193	0.00473	0.024414	-0.055542	-0.053253	0.002441	0.17059	-0.019989	-0.28229	-0.007629	0.027466	-0.11139	0.12817	0.097046	0.00885	0.013428	0.099487	-0.059509	-0.037079	-0.021973	0.19318	-0.005951	0.59677	-0.10361	0.001526	-0.005493
3.02	-0.018768	-0.13779	-0.13245	0.033264	0.015411	0.0737	0.058289	0.005341	0.016327	-0.060883	-0.017548	-0.001984	-0.19165	-0.081177	-0.18021	-0.016632	0.007782	-0.12695	0.14801	-0.046997	0.025635	0.01297	0.044403	-0.097809	-0.050201	-0.011597	0.16312	-0.00946	-0.30395	-0.13184	-0.001831	-0.002747
3.021	-0.024872	-0.15579	-0.088196	0.0177	-0.011444	0.012207	0.070648	0.007782	0.029449	-0.07019	-0.020142	0.002899	-0.32974	-0.099182	0.033722	-0.000763	-0.020447	-0.14297	0.038757	-0.073242	0.021973	0.010681	0.043488	-0.057831	-0.058441	-0.012817	0.21805	-0.006561	-0.84915	-0.098114	-0.006561	-0.002136
3.022	-0.016632	-0.16937	-0.092926	0.027466	-0.02121	-0.007324	0.050507	-0.007629	0.058441	-0.061951	-0.002899	-0.007782	-0.026703	-0.10254	0.045319	-0.003357	-0.0177	-0.1474	0.12009	-0.15625	0.018616	0.016632	0.082397	-0.040283	-0.052338	-0.023193	0.33386	-0.007782	-0.45563	-0.001678	-0.003815	-0.003357
3.023	0.007629	-0.17761	-0.050507	0.016174	-0.040894	-0.012512	0.07431	-0.009613	0.03006	-0.061646	-0.013123	0.037231	0.033875	-0.035553	0.046844	0.000763	-0.021667	-0.085297	0.13458	-0.27023	0.011597	0.019226	0.045929	-0.009766	-0.04303	-0.013885	0.28061	-0.008545	-0.44754	-0.032501	-0.001984	-0.006714
3.024	0.000305	-0.15656	-0.13962	0.014496	-0.05127	-0.056305	0.11566	-0.001678	-0.00412	-0.05249	-0.039368	0.014648	0.11353	-0.068054	0.076447	-0.042725	-0.020905	-0.10437	-0.082703	-0.30289	0.016022	0.026703	0.011902	0.000916	-0.049896	-0.01297	0.072632	-0.010986	-0.13794	-0.031128	-0.00824	-0.004578
3.025	-0.020599	-0.21194	-0.18188	0.023651	-0.082245	0.013123	0.11566	0.001373	-0.023041	0.048218	-0.033417	0.004425	0.32806	-0.078278	0.042419	-0.007935	-0.013733	-0.1004	-0.16983	-0.11765	0.025024	0.039978	-0.035248	-0.023193	-0.026703	-0.017395	-0.084534	-0.009766	-0.16083	0.031738	-0.002899	-0.003052
3.026	0.003815	-0.21301	-0.15915	0.014038	-0.053101	0.10712	0.092926	0.009155	0.008392	0.099182	-0.001221	-0.00824	0.18524	-0.11169	0.067291	0.095367	0	-0.09079	0.14801	0.11292	0.03006	0.033569	-0.049286	0.018463	-0.032959	-0.013885	-0.41657	-0.011139	-0.009308	-0.017853	-0.000458	-0.012207
3.027	-0.004883	-0.21561	0.054321	0.019989	-0.014038	0.168	0.15076	0.008087	0.007782	0.15198	0.039673	0.001068	-0.032959	-0.17929	0.097961	-0.11566	-0.005493	-0.16342	0.37064	0.39383	0.019989	0.02655	-0.041962	-0.030823	-0.032349	-0.015564	-0.24139	-0.007324	-0.087128	-0.016327	-0.000763	-0.009918
3.028	0.005188	-0.16647	-0.095215	-0.007172	0.020294	0.03891	0.067596	0.00946	-0.020905	0.18173	0.037842	0.006409	-0.12161	-0.15213	0.10101	0.055847	-0.002136	-0.1236	0.35645	0.32989	0.007477	0.029297	0.015717	0.003967	-0.033569	-0.016174	0.014954	-0.00946	-0.077362	0.017242	-0.003357	-0.011749
3.029	0.007629	-0.18265	-0.25513	0.014954	0.012817	0.009766	0.015411	0.00885	0.032959	0.18784	0.016022	0.006714	-0.042267	0.028534	0.058746	0.24155	-0.003357	-0.14771	0.12131	0.025024	0.006866	0.032043	-0.067291	-0.018005	-0.03479	-0.020294	0.11948	-0.006256	-0.013275	0.075073	-0.002899	-0.013733
3.03	0.001373	-0.15549	-0.15457	-0.004272	-0.082397	-0.01297	0.001068	-0.001984	0.013275	0.025635	0.011597	0.034637	0.31113	0.16586	0.032196	0.002594	-0.005493	-0.13107	0.18143	-0.049896	0.007324	0.04303	-0.050812	0.001526	-0.03891	-0.018921	0.097656	-0.005951	0.14771	0.077515	0.000305	-0.013428
3.031	0.005646	-0.11719	0.019379	-0.011444	-0.07782	0.065002	0.067139	0.006866	-0.12192	-0.19379	-0.00412	0.049591	0.38483	0.22217	0.036163	-0.13748	0.007019	-0.13825	0.24948	0.019073	-0.005798	0.032959	-0.028076	-0.028229	-0.031281	-0.013428	0.14816	-0.004883	0.14984	-0.010529	-0.002289	-0.017548
3.032	-0.003662	-0.10361	0.20142	0.018158	0.042267	0.033722	0.029297	0.023956	-0.20416	-0.15366	-0.066223	0.019531	0.22217	0.16205	0.036926	-0.068207	0.018463	-0.11032	0.19028	0.13947	-0.00946	0.052643	-0.019073	-0.047455	-0.058746	-0.011902	0.24338	-0.006714	0.12375	-0.028381	-0.000763	-0.012512
3.033	0.010376	-0.084991	0.14694	0.036621	0.14511	0.021515	-0.12054	0.036011	-0.0914	-0.021667	0.024109	-0.066986	0.63995	-0.03479	0.059052	-0.039063	0.012817	-0.16541	0.25848	0.16571	-0.020142	0.032043	0.045166	-0.045929	-0.036926	-0.010834	0.37689	-0.004883	0.18997	-0.020294	-0.001373	-0.012665
3.034	0.012512	-0.12497	0.059357	0.038757	0.10284	0.045471	-0.10864	0.011902	0.081329	0.075226	0.042572	-0.000763	-0.69336	-0.24963	-0.027161	-0.0177	0.015564	-0.16388	0.13916	0.14542	-0.021515	0.041199	0.02533	-0.041962	-0.047455	-0.012512	0.25833	-0.006409	0.1973	-0.014954	-0.00351	-0.00473
3.035	-0.009003	-0.089417	0.066833	0.031128	0.054779	0.022278	-0.027161	0.001831	0.16174	0.15228	0.01709	-0.001831	-0.58884	-0.41824	-0.066681	-0.002594	0.004425	-0.13886	0.11032	0.082855	-0.036011	0.015717	0.063171	-0.072327	-0.032806	-0.004883	-0.24017	-0.007019	0.028534	-0.081177	-0.00061	-0.00473
